<svg width="16" height="16" viewBox="0 0 16 16" fill="none" xmlns="http://www.w3.org/2000/svg">
<path d="M2.76187 14.7987C2.52806 14.6641 2.33428 14.4696 2.2004 14.2354C2.06651 14.0011 1.99735 13.7354 2 13.4656V2.53438C1.99735 2.26456 2.06651 1.9989 2.2004 1.76464C2.33428 1.53037 2.52806 1.33593 2.76187 1.20125C2.9868 1.06984 3.24262 1.00058 3.50312 1.00058C3.76363 1.00058 4.01945 1.06984 4.24437 1.20125L13.7362 6.66563C13.9688 6.80221 14.1616 6.99719 14.2956 7.23125C14.4296 7.4653 14.5 7.73031 14.5 8C14.5 8.26969 14.4296 8.5347 14.2956 8.76875C14.1616 9.00281 13.9688 9.19779 13.7362 9.33438L4.24437 14.8C4.01933 14.9312 3.76346 15.0003 3.50295 15C3.24245 14.9998 2.98669 14.9304 2.76187 14.7987Z" fill="#4BB543" fill-opacity="0.67"/>
</svg>
